<svg width="181" height="40" viewBox="0 0 181 40" fill="none" xmlns="http://www.w3.org/2000/svg">
<path d="M50.1367 30.516C48.5794 30.516 47.2781 30.196 46.2327 29.556C45.2087 28.916 44.4407 27.9347 43.9287 26.612C43.4167 25.2893 43.1607 23.5933 43.1607 21.524C43.1607 19.4973 43.4274 17.8227 43.9607 16.5C44.5154 15.1773 45.3154 14.196 46.3607 13.556C47.4061 12.916 48.6647 12.596 50.1367 12.596C51.7154 12.596 53.1447 12.9587 54.4247 13.684C55.7261 14.4093 56.7501 15.444 57.4967 16.788C58.2647 18.1107 58.6487 19.6893 58.6487 21.524C58.6487 23.38 58.2647 24.98 57.4967 26.324C56.7501 27.6467 55.7261 28.6813 54.4247 29.428C53.1447 30.1533 51.7154 30.516 50.1367 30.516ZM40.0247 30.228C39.5829 30.228 39.2247 29.8698 39.2247 29.428V7.284C39.2247 6.84217 39.5829 6.484 40.0247 6.484H44.5047C44.9466 6.484 45.3047 6.84217 45.3047 7.284V15.796L44.9847 21.524L45.0167 27.252V29.428C45.0167 29.8698 44.6586 30.228 44.2167 30.228H40.0247ZM48.8567 25.684C49.5394 25.684 50.1474 25.524 50.6807 25.204C51.2354 24.884 51.6727 24.4147 51.9927 23.796C52.3341 23.156 52.5047 22.3987 52.5047 21.524C52.5047 20.6493 52.3341 19.9133 51.9927 19.316C51.6727 18.6973 51.2354 18.228 50.6807 17.908C50.1474 17.588 49.5394 17.428 48.8567 17.428C48.1741 17.428 47.5554 17.588 47.0007 17.908C46.4674 18.228 46.0301 18.6973 45.6887 19.316C45.3687 19.9133 45.2087 20.6493 45.2087 21.524C45.2087 22.3987 45.3687 23.156 45.6887 23.796C46.0301 24.4147 46.4674 24.884 47.0007 25.204C47.5554 25.524 48.1741 25.684 48.8567 25.684Z" fill="#374151"/>
<path d="M68.7707 30.516C67.3627 30.516 66.0934 30.2387 64.9627 29.684C63.8534 29.1293 62.9787 28.2653 62.3387 27.092C61.7201 25.8973 61.4107 24.3933 61.4107 22.58V13.684C61.4107 13.2422 61.7689 12.884 62.2107 12.884H66.6907C67.1326 12.884 67.4907 13.2422 67.4907 13.684V21.588C67.4907 22.932 67.7361 23.892 68.2267 24.468C68.7387 25.044 69.4534 25.332 70.3707 25.332C70.9681 25.332 71.5121 25.1933 72.0027 24.916C72.4934 24.6387 72.8881 24.2013 73.1867 23.604C73.4854 22.9853 73.6347 22.196 73.6347 21.236V13.684C73.6347 13.2422 73.9929 12.884 74.4347 12.884H78.9147C79.3566 12.884 79.7147 13.2422 79.7147 13.684V29.428C79.7147 29.8698 79.3566 30.228 78.9147 30.228H74.7227C74.2809 30.228 73.9227 29.8698 73.9227 29.428V26.7829C73.9227 26.2974 74.5322 26.0808 74.8386 26.4572C74.9634 26.6106 74.991 26.8227 74.8999 26.9982C74.3107 28.134 73.4943 28.9973 72.4507 29.588C71.3201 30.2067 70.0934 30.516 68.7707 30.516Z" fill="#374151"/>
<path d="M84.431 30.228C83.9892 30.228 83.631 29.8698 83.631 29.428V13.684C83.631 13.2422 83.9892 12.884 84.431 12.884H88.911C89.3528 12.884 89.711 13.2422 89.711 13.684V29.428C89.711 29.8698 89.3528 30.228 88.911 30.228H84.431ZM86.671 10.964C85.5616 10.964 84.6656 10.6547 83.983 10.036C83.3003 9.41733 82.959 8.64933 82.959 7.732C82.959 6.81467 83.3003 6.04667 83.983 5.428C84.6656 4.80933 85.5616 4.5 86.671 4.5C87.7803 4.5 88.6763 4.79867 89.359 5.396C90.0416 5.972 90.383 6.71867 90.383 7.636C90.383 8.596 90.0416 9.396 89.359 10.036C88.6976 10.6547 87.8017 10.964 86.671 10.964Z" fill="#374151"/>
<path d="M94.4622 30.228C94.0204 30.228 93.6622 29.8698 93.6622 29.428V7.284C93.6622 6.84217 94.0204 6.484 94.4622 6.484H98.9422C99.3841 6.484 99.7422 6.84217 99.7422 7.284V29.428C99.7422 29.8698 99.3841 30.228 98.9422 30.228H94.4622Z" fill="#374151"/>
<path d="M111.245 30.516C109.667 30.516 108.227 30.1533 106.925 29.428C105.645 28.6813 104.621 27.6467 103.853 26.324C103.085 24.98 102.701 23.38 102.701 21.524C102.701 19.6893 103.085 18.1107 103.853 16.788C104.621 15.444 105.645 14.4093 106.925 13.684C108.227 12.9587 109.667 12.596 111.245 12.596C112.739 12.596 113.997 12.916 115.021 13.556C116.067 14.196 116.856 15.1773 117.389 16.5C117.923 17.8227 118.189 19.4973 118.189 21.524C118.189 23.5933 117.933 25.2893 117.421 26.612C116.909 27.9347 116.141 28.916 115.117 29.556C114.093 30.196 112.803 30.516 111.245 30.516ZM112.525 25.684C113.208 25.684 113.816 25.524 114.349 25.204C114.904 24.884 115.341 24.4147 115.661 23.796C115.981 23.156 116.141 22.3987 116.141 21.524C116.141 20.6493 115.981 19.9133 115.661 19.316C115.341 18.6973 114.904 18.228 114.349 17.908C113.816 17.588 113.208 17.428 112.525 17.428C111.821 17.428 111.192 17.588 110.637 17.908C110.104 18.228 109.677 18.6973 109.357 19.316C109.037 19.9133 108.877 20.6493 108.877 21.524C108.877 22.3987 109.037 23.156 109.357 23.796C109.677 24.4147 110.104 24.884 110.637 25.204C111.192 25.524 111.821 25.684 112.525 25.684ZM117.133 30.228C116.692 30.228 116.333 29.8698 116.333 29.428V27.252L116.365 21.524L116.045 15.796V7.284C116.045 6.84217 116.404 6.484 116.845 6.484H121.325C121.767 6.484 122.125 6.84217 122.125 7.284V29.428C122.125 29.8698 121.767 30.228 121.325 30.228H117.133Z" fill="#374151"/>
<path d="M136.521 30.516C135.113 30.516 133.843 30.2387 132.713 29.684C131.603 29.1293 130.729 28.2653 130.089 27.092C129.47 25.8973 129.161 24.3933 129.161 22.58V13.684C129.161 13.2422 129.519 12.884 129.961 12.884H134.441C134.883 12.884 135.241 13.2422 135.241 13.684V21.588C135.241 22.932 135.486 23.892 135.977 24.468C136.489 25.044 137.203 25.332 138.121 25.332C138.718 25.332 139.262 25.1933 139.753 24.916C140.243 24.6387 140.638 24.2013 140.937 23.604C141.235 22.9853 141.385 22.196 141.385 21.236V13.684C141.385 13.2422 141.743 12.884 142.185 12.884H146.665C147.107 12.884 147.465 13.2422 147.465 13.684V29.428C147.465 29.8698 147.107 30.228 146.665 30.228H142.473C142.031 30.228 141.673 29.8698 141.673 29.428V26.7829C141.673 26.2974 142.282 26.0808 142.589 26.4572C142.713 26.6106 142.741 26.8227 142.65 26.9982C142.061 28.1341 141.244 28.9973 140.201 29.588C139.07 30.2067 137.843 30.516 136.521 30.516Z" fill="#374151"/>
<path d="M162.293 30.516C160.821 30.516 159.562 30.196 158.517 29.556C157.472 28.8947 156.672 27.9133 156.117 26.612C155.584 25.2893 155.317 23.604 155.317 21.556C155.317 19.4867 155.573 17.8013 156.085 16.5C156.597 15.1773 157.365 14.196 158.389 13.556C159.434 12.916 160.736 12.596 162.293 12.596C163.872 12.596 165.301 12.9693 166.581 13.716C167.882 14.4413 168.906 15.476 169.653 16.82C170.421 18.1427 170.805 19.7213 170.805 21.556C170.805 23.3907 170.421 24.98 169.653 26.324C168.906 27.668 167.882 28.7027 166.581 29.428C165.301 30.1533 163.872 30.516 162.293 30.516ZM152.181 36.436C151.739 36.436 151.381 36.0778 151.381 35.636V13.684C151.381 13.2422 151.739 12.884 152.181 12.884H156.373C156.815 12.884 157.173 13.2422 157.173 13.684V15.828L157.141 21.556L157.461 27.316V35.636C157.461 36.0778 157.103 36.436 156.661 36.436H152.181ZM161.013 25.684C161.696 25.684 162.304 25.524 162.837 25.204C163.392 24.884 163.829 24.4147 164.149 23.796C164.49 23.1773 164.661 22.4307 164.661 21.556C164.661 20.6813 164.49 19.9347 164.149 19.316C163.829 18.6973 163.392 18.228 162.837 17.908C162.304 17.588 161.696 17.428 161.013 17.428C160.33 17.428 159.712 17.588 159.157 17.908C158.624 18.228 158.186 18.6973 157.845 19.316C157.525 19.9347 157.365 20.6813 157.365 21.556C157.365 22.4307 157.525 23.1773 157.845 23.796C158.186 24.4147 158.624 24.884 159.157 25.204C159.712 25.524 160.33 25.684 161.013 25.684Z" fill="#374151"/>
<path fill-rule="evenodd" clip-rule="evenodd" d="M17 8.228C17 7.12343 16.1046 6.228 15 6.228H11C9.89543 6.228 9 7.12343 9 8.228V12.228C9 13.3326 9.89543 14.228 11 14.228L15 14.228C15.0925 14.228 15.1836 14.2217 15.2728 14.2095C15.2728 14.2157 15.2727 14.2218 15.2727 14.228L15.2727 28.228C15.2727 29.3326 16.1682 30.228 17.2727 30.228H25.2727C29.691 30.228 33.2727 26.6463 33.2727 22.228V20.228C33.2727 15.8097 29.691 12.228 25.2727 12.228H17.2727C17.1802 12.228 17.0891 12.2343 16.9999 12.2464C17 12.2403 17 12.2342 17 12.228L17 8.228Z" fill="#FF602E"/>
</svg>
