<svg width="181" height="39" viewBox="0 0 181 39" fill="none" xmlns="http://www.w3.org/2000/svg">
<path d="M50.1367 30.016C48.5794 30.016 47.2781 29.696 46.2327 29.056C45.2087 28.416 44.4407 27.4347 43.9287 26.112C43.4167 24.7893 43.1607 23.0933 43.1607 21.024C43.1607 18.9973 43.4274 17.3227 43.9607 16C44.5154 14.6773 45.3154 13.696 46.3607 13.056C47.4061 12.416 48.6647 12.096 50.1367 12.096C51.7154 12.096 53.1447 12.4587 54.4247 13.184C55.7261 13.9093 56.7501 14.944 57.4967 16.288C58.2647 17.6107 58.6487 19.1893 58.6487 21.024C58.6487 22.88 58.2647 24.48 57.4967 25.824C56.7501 27.1467 55.7261 28.1813 54.4247 28.928C53.1447 29.6533 51.7154 30.016 50.1367 30.016ZM40.0247 29.728C39.5829 29.728 39.2247 29.3698 39.2247 28.928V6.784C39.2247 6.34217 39.5829 5.984 40.0247 5.984H44.5047C44.9466 5.984 45.3047 6.34217 45.3047 6.784V15.296L44.9847 21.024L45.0167 26.752V28.928C45.0167 29.3698 44.6586 29.728 44.2167 29.728H40.0247ZM48.8567 25.184C49.5394 25.184 50.1474 25.024 50.6807 24.704C51.2354 24.384 51.6727 23.9147 51.9927 23.296C52.3341 22.656 52.5047 21.8987 52.5047 21.024C52.5047 20.1493 52.3341 19.4133 51.9927 18.816C51.6727 18.1973 51.2354 17.728 50.6807 17.408C50.1474 17.088 49.5394 16.928 48.8567 16.928C48.1741 16.928 47.5554 17.088 47.0007 17.408C46.4674 17.728 46.0301 18.1973 45.6887 18.816C45.3687 19.4133 45.2087 20.1493 45.2087 21.024C45.2087 21.8987 45.3687 22.656 45.6887 23.296C46.0301 23.9147 46.4674 24.384 47.0007 24.704C47.5554 25.024 48.1741 25.184 48.8567 25.184Z" fill="white"/>
<path d="M68.7707 30.016C67.3627 30.016 66.0934 29.7387 64.9627 29.184C63.8534 28.6293 62.9787 27.7653 62.3387 26.592C61.7201 25.3973 61.4107 23.8933 61.4107 22.08V13.184C61.4107 12.7422 61.7689 12.384 62.2107 12.384H66.6907C67.1326 12.384 67.4907 12.7422 67.4907 13.184V21.088C67.4907 22.432 67.7361 23.392 68.2267 23.968C68.7387 24.544 69.4534 24.832 70.3707 24.832C70.9681 24.832 71.5121 24.6933 72.0027 24.416C72.4934 24.1387 72.8881 23.7013 73.1867 23.104C73.4854 22.4853 73.6347 21.696 73.6347 20.736V13.184C73.6347 12.7422 73.9929 12.384 74.4347 12.384H78.9147C79.3566 12.384 79.7147 12.7422 79.7147 13.184V28.928C79.7147 29.3698 79.3566 29.728 78.9147 29.728H74.7227C74.2809 29.728 73.9227 29.3698 73.9227 28.928V26.2829C73.9227 25.7974 74.5322 25.5808 74.8386 25.9572V25.9572C74.9634 26.1106 74.991 26.3227 74.8999 26.4982C74.3107 27.634 73.4943 28.4973 72.4507 29.088C71.3201 29.7067 70.0934 30.016 68.7707 30.016Z" fill="white"/>
<path d="M84.431 29.728C83.9892 29.728 83.631 29.3698 83.631 28.928V13.184C83.631 12.7422 83.9892 12.384 84.431 12.384H88.911C89.3528 12.384 89.711 12.7422 89.711 13.184V28.928C89.711 29.3698 89.3528 29.728 88.911 29.728H84.431ZM86.671 10.464C85.5616 10.464 84.6656 10.1547 83.983 9.536C83.3003 8.91733 82.959 8.14933 82.959 7.232C82.959 6.31467 83.3003 5.54667 83.983 4.928C84.6656 4.30933 85.5616 4 86.671 4C87.7803 4 88.6763 4.29867 89.359 4.896C90.0416 5.472 90.383 6.21867 90.383 7.136C90.383 8.096 90.0416 8.896 89.359 9.536C88.6976 10.1547 87.8016 10.464 86.671 10.464Z" fill="white"/>
<path d="M94.4622 29.728C94.0204 29.728 93.6622 29.3698 93.6622 28.928V6.784C93.6622 6.34217 94.0204 5.984 94.4622 5.984H98.9422C99.3841 5.984 99.7422 6.34217 99.7422 6.784V28.928C99.7422 29.3698 99.3841 29.728 98.9422 29.728H94.4622Z" fill="white"/>
<path d="M111.245 30.016C109.667 30.016 108.227 29.6533 106.925 28.928C105.645 28.1813 104.621 27.1467 103.853 25.824C103.085 24.48 102.701 22.88 102.701 21.024C102.701 19.1893 103.085 17.6107 103.853 16.288C104.621 14.944 105.645 13.9093 106.925 13.184C108.227 12.4587 109.667 12.096 111.245 12.096C112.739 12.096 113.997 12.416 115.021 13.056C116.067 13.696 116.856 14.6773 117.389 16C117.923 17.3227 118.189 18.9973 118.189 21.024C118.189 23.0933 117.933 24.7893 117.421 26.112C116.909 27.4347 116.141 28.416 115.117 29.056C114.093 29.696 112.803 30.016 111.245 30.016ZM112.525 25.184C113.208 25.184 113.816 25.024 114.349 24.704C114.904 24.384 115.341 23.9147 115.661 23.296C115.981 22.656 116.141 21.8987 116.141 21.024C116.141 20.1493 115.981 19.4133 115.661 18.816C115.341 18.1973 114.904 17.728 114.349 17.408C113.816 17.088 113.208 16.928 112.525 16.928C111.821 16.928 111.192 17.088 110.637 17.408C110.104 17.728 109.677 18.1973 109.357 18.816C109.037 19.4133 108.877 20.1493 108.877 21.024C108.877 21.8987 109.037 22.656 109.357 23.296C109.677 23.9147 110.104 24.384 110.637 24.704C111.192 25.024 111.821 25.184 112.525 25.184ZM117.133 29.728C116.692 29.728 116.333 29.3698 116.333 28.928V26.752L116.365 21.024L116.045 15.296V6.784C116.045 6.34217 116.404 5.984 116.845 5.984H121.325C121.767 5.984 122.125 6.34217 122.125 6.784V28.928C122.125 29.3698 121.767 29.728 121.325 29.728H117.133Z" fill="white"/>
<path d="M136.521 30.016C135.113 30.016 133.843 29.7387 132.713 29.184C131.603 28.6293 130.729 27.7653 130.089 26.592C129.47 25.3973 129.161 23.8933 129.161 22.08V13.184C129.161 12.7422 129.519 12.384 129.961 12.384H134.441C134.883 12.384 135.241 12.7422 135.241 13.184V21.088C135.241 22.432 135.486 23.392 135.977 23.968C136.489 24.544 137.203 24.832 138.121 24.832C138.718 24.832 139.262 24.6933 139.753 24.416C140.243 24.1387 140.638 23.7013 140.937 23.104C141.235 22.4853 141.385 21.696 141.385 20.736V13.184C141.385 12.7422 141.743 12.384 142.185 12.384H146.665C147.107 12.384 147.465 12.7422 147.465 13.184V28.928C147.465 29.3698 147.107 29.728 146.665 29.728H142.473C142.031 29.728 141.673 29.3698 141.673 28.928V26.2829C141.673 25.7974 142.282 25.5808 142.589 25.9572V25.9572C142.713 26.1106 142.741 26.3227 142.65 26.4982C142.061 27.6341 141.244 28.4973 140.201 29.088C139.07 29.7067 137.843 30.016 136.521 30.016Z" fill="white"/>
<path d="M162.293 30.016C160.821 30.016 159.562 29.696 158.517 29.056C157.472 28.3947 156.672 27.4133 156.117 26.112C155.584 24.7893 155.317 23.104 155.317 21.056C155.317 18.9867 155.573 17.3013 156.085 16C156.597 14.6773 157.365 13.696 158.389 13.056C159.434 12.416 160.736 12.096 162.293 12.096C163.872 12.096 165.301 12.4693 166.581 13.216C167.882 13.9413 168.906 14.976 169.653 16.32C170.421 17.6427 170.805 19.2213 170.805 21.056C170.805 22.8907 170.421 24.48 169.653 25.824C168.906 27.168 167.882 28.2027 166.581 28.928C165.301 29.6533 163.872 30.016 162.293 30.016ZM152.181 35.936C151.739 35.936 151.381 35.5778 151.381 35.136V13.184C151.381 12.7422 151.739 12.384 152.181 12.384H156.373C156.815 12.384 157.173 12.7422 157.173 13.184V15.328L157.141 21.056L157.461 26.816V35.136C157.461 35.5778 157.103 35.936 156.661 35.936H152.181ZM161.013 25.184C161.696 25.184 162.304 25.024 162.837 24.704C163.392 24.384 163.829 23.9147 164.149 23.296C164.49 22.6773 164.661 21.9307 164.661 21.056C164.661 20.1813 164.49 19.4347 164.149 18.816C163.829 18.1973 163.392 17.728 162.837 17.408C162.304 17.088 161.696 16.928 161.013 16.928C160.33 16.928 159.712 17.088 159.157 17.408C158.624 17.728 158.186 18.1973 157.845 18.816C157.525 19.4347 157.365 20.1813 157.365 21.056C157.365 21.9307 157.525 22.6773 157.845 23.296C158.186 23.9147 158.624 24.384 159.157 24.704C159.712 25.024 160.33 25.184 161.013 25.184Z" fill="white"/>
<path fill-rule="evenodd" clip-rule="evenodd" d="M17 7.728C17 6.62343 16.1046 5.728 15 5.728H11C9.89543 5.728 9 6.62343 9 7.728V11.728C9 12.8326 9.89543 13.728 11 13.728L15 13.728C15.0925 13.728 15.1836 13.7217 15.2728 13.7095C15.2728 13.7157 15.2727 13.7218 15.2727 13.728L15.2727 27.728C15.2727 28.8326 16.1682 29.728 17.2727 29.728H25.2727C29.691 29.728 33.2727 26.1463 33.2727 21.728V19.728C33.2727 15.3097 29.691 11.728 25.2727 11.728H17.2727C17.1802 11.728 17.0891 11.7343 16.9999 11.7464C17 11.7403 17 11.7342 17 11.728L17 7.728Z" fill="#FF602E"/>
</svg>
