<svg width="124" height="124" viewBox="0 0 124 124" fill="none" xmlns="http://www.w3.org/2000/svg">
<rect width="124" height="124" rx="16" fill="#FF602E"/>
<path d="M16 49H108V95C108 99.4183 104.418 103 100 103H24C19.5817 103 16 99.4183 16 95V49Z" fill="white"/>
<path d="M16 49H108L66.9305 16.8586C64.0342 14.592 59.9658 14.592 57.0695 16.8586L16 49Z" fill="white"/>
<path d="M108 49L16 49L57.0695 81.1414C59.9658 83.408 64.0342 83.408 66.9305 81.1414L108 49Z" fill="#F3F4F6"/>
<rect x="49" y="62" width="27" height="28" rx="13.5" fill="black"/>
<path d="M62.092 83.536C58.46 83.536 55.34 81.328 55.34 76.784C55.34 71.776 59.004 68.464 63.356 68.464C67.212 68.464 69.66 71.072 69.66 74.8C69.66 78.08 67.5 79.744 65.66 79.744C64.636 79.744 63.804 79.264 63.628 78.368H63.596C63.084 79.088 62.156 79.584 61.404 79.584C59.996 79.584 59.068 78.56 59.068 76.896C59.068 74.768 60.588 72.512 62.684 72.512C63.308 72.512 63.772 72.784 64.076 73.408H64.108L64.364 72.656H65.82L65.036 76.56C64.764 77.696 65.052 78.272 65.9 78.272C67.004 78.272 68.14 76.96 68.14 74.88C68.14 72.176 66.652 69.92 63.164 69.92C60.028 69.92 56.94 72.576 56.94 76.72C56.94 80.288 59.372 82.08 62.284 82.08C63.26 82.08 64.316 81.776 65.084 81.344L65.612 82.656C64.524 83.28 63.372 83.536 62.092 83.536ZM61.9 78.096C62.332 78.096 62.716 77.84 63.228 77.2L63.692 74.64C63.452 74.24 63.148 74.048 62.748 74.048C61.596 74.048 60.844 75.616 60.844 76.768C60.844 77.664 61.276 78.096 61.9 78.096Z" fill="white"/>
</svg>
