<svg width="48" height="48" viewBox="0 0 48 48" fill="none" xmlns="http://www.w3.org/2000/svg">
<path d="M40.3205 33C38.5651 36.0404 36.0404 38.5651 33 40.3205C29.9596 42.0759 26.5107 43 23 43C19.4893 43 16.0404 42.0759 13 40.3205C9.95962 38.5651 7.43486 36.0404 5.67949 33C3.92413 29.9596 3 26.5107 3 23C3 19.4893 3.92413 16.0404 5.67949 13C7.43486 9.95962 9.95962 7.43486 13 5.67949C16.0404 3.92413 19.4893 3 23 3L23 23L40.3205 33Z" fill="#FF602E"/>
<path d="M23 3C26.5104 3 29.9589 3.92394 32.9991 5.67897C36.0393 7.434 38.564 9.95829 40.3195 12.9982C42.075 16.0381 42.9994 19.4865 43 22.9969C43.0006 26.5072 42.0772 29.9559 40.3226 32.9964L23 23L23 3Z" fill="#1F2937"/>
<path d="M21.7876 33.1143V12.5238H23.9781V33.1143H21.7876ZM22.5762 30.7486C21.3495 30.7486 20.174 30.5879 19.0495 30.2667C17.9251 29.9308 17.0197 29.5 16.3333 28.9743L17.5381 26.3019C18.1952 26.7692 18.9692 27.1562 19.86 27.4629C20.7654 27.7549 21.6781 27.901 22.5981 27.901C23.299 27.901 23.8613 27.8352 24.2848 27.7038C24.7229 27.5578 25.0441 27.3606 25.2486 27.1124C25.453 26.8641 25.5552 26.5794 25.5552 26.2581C25.5552 25.8492 25.3946 25.5279 25.0733 25.2943C24.7521 25.046 24.3286 24.8489 23.8029 24.7029C23.2771 24.5422 22.693 24.3962 22.0505 24.2648C21.4225 24.1187 20.7873 23.9435 20.1448 23.7391C19.5168 23.5346 18.94 23.2717 18.4143 22.9505C17.8886 22.6292 17.4578 22.2057 17.1219 21.68C16.8006 21.1543 16.64 20.4825 16.64 19.6648C16.64 18.7886 16.8736 17.9927 17.3409 17.2771C17.8229 16.547 18.5384 15.9702 19.4876 15.5467C20.4514 15.1086 21.6562 14.8895 23.1019 14.8895C24.0657 14.8895 25.0149 15.0064 25.9495 15.24C26.8841 15.459 27.7092 15.7949 28.4248 16.2476L27.3295 18.9419C26.614 18.533 25.8984 18.2337 25.1829 18.0438C24.4673 17.8394 23.7663 17.7371 23.08 17.7371C22.3936 17.7371 21.8314 17.8175 21.3933 17.9781C20.9552 18.1387 20.6413 18.3505 20.4514 18.6133C20.2616 18.8616 20.1667 19.1537 20.1667 19.4895C20.1667 19.8838 20.3273 20.2051 20.6486 20.4533C20.9698 20.687 21.3933 20.8768 21.919 21.0229C22.4448 21.1689 23.0216 21.3149 23.6495 21.461C24.2921 21.607 24.9273 21.7749 25.5552 21.9648C26.1978 22.1546 26.7819 22.4102 27.3076 22.7314C27.8333 23.0527 28.2568 23.4762 28.5781 24.0019C28.914 24.5276 29.0819 25.1921 29.0819 25.9952C29.0819 26.8568 28.8409 27.6454 28.359 28.361C27.8771 29.0765 27.1543 29.6533 26.1905 30.0914C25.2413 30.5295 24.0365 30.7486 22.5762 30.7486Z" fill="white"/>
</svg>
