<svg width="124" height="124" viewBox="0 0 124 124" fill="none" xmlns="http://www.w3.org/2000/svg">
<rect width="124" height="124" rx="16" fill="#FFE812"/>
<path d="M61.7166 17.4375C33.895 17.4375 11.3416 35.2204 11.3416 57.1562C11.3416 71.3383 20.7704 83.7823 34.9539 90.8092C34.1823 93.4703 29.9953 107.929 29.8287 109.065C29.8287 109.065 29.7284 109.918 30.2811 110.244C30.8338 110.569 31.4838 110.316 31.4838 110.316C33.0687 110.095 49.8624 98.2986 52.7692 96.2501C55.673 96.6614 58.6631 96.875 61.7166 96.875C89.5381 96.875 112.092 79.0926 112.092 57.1562C112.092 35.2204 89.5381 17.4375 61.7166 17.4375Z" fill="black"/>
<path d="M33.865 71.0215C32.2622 71.0215 30.9587 69.7766 30.9587 68.246V50.9805H26.424C24.8513 50.9805 23.572 49.7037 23.572 48.1348C23.572 46.5659 24.8517 45.2891 26.424 45.2891H41.306C42.8787 45.2891 44.158 46.5659 44.158 48.1348C44.158 49.7037 42.8782 50.9805 41.306 50.9805H36.7712V68.246C36.7712 69.7766 35.4678 71.0215 33.865 71.0215ZM59.3489 70.9837C58.137 70.9837 57.2099 70.4916 56.9304 69.7001L55.4914 65.9326L46.6292 65.9322L45.1892 69.702C44.9107 70.4921 43.9841 70.9837 42.7722 70.9837C42.1347 70.9844 41.5046 70.8476 40.9248 70.5826C40.1236 70.2131 39.3534 69.1968 40.236 66.4558L47.1877 48.158C47.6774 46.7664 49.1649 45.3327 51.0579 45.2895C52.9561 45.3322 54.4437 46.7664 54.9343 48.1609L61.8832 66.4504C62.7676 69.1978 61.9975 70.2145 61.1963 70.5831C60.6164 70.8476 59.9863 70.9842 59.3489 70.9837ZM53.9632 60.7847L51.0603 52.5382L48.1574 60.7847H53.9632ZM66.5603 70.5977C65.0243 70.5977 63.7751 69.4022 63.7751 67.9336V48.1953C63.7751 46.5925 65.1062 45.2891 66.7419 45.2891C68.3777 45.2891 69.7087 46.5925 69.7087 48.1953V65.2695H75.8845C77.4205 65.2695 78.6697 66.465 78.6697 67.9336C78.6697 69.4022 77.4205 70.5977 75.8845 70.5977H66.5603ZM82.7065 70.9837C81.1037 70.9837 79.8002 69.6802 79.8002 68.0775V48.1953C79.8002 46.5925 81.1037 45.2891 82.7065 45.2891C84.3093 45.2891 85.6127 46.5925 85.6127 48.1953V54.4418L93.7211 46.3334C94.1382 45.9163 94.7112 45.6867 95.3331 45.6867C96.0587 45.6867 96.7872 45.9996 97.3331 46.545C97.8422 47.0536 98.1459 47.708 98.1876 48.3876C98.2297 49.073 98.0016 49.7012 97.5463 50.157L90.9234 56.7789L98.0771 66.2562C98.3081 66.5602 98.4764 66.9071 98.5722 67.2767C98.6679 67.6463 98.6894 68.0313 98.6351 68.4092C98.5833 68.7874 98.457 69.1516 98.2634 69.4806C98.0699 69.8096 97.8129 70.0969 97.5075 70.3259C97.0049 70.7079 96.3907 70.914 95.7594 70.9125C95.3091 70.9146 94.8646 70.8112 94.4614 70.6106C94.0582 70.41 93.7077 70.1177 93.4378 69.7573L86.6221 60.7266L85.6137 61.735V68.076C85.6128 68.8468 85.3062 69.5858 84.7612 70.1309C84.2162 70.676 83.4773 70.9827 82.7065 70.9837Z" fill="#FFE812"/>
</svg>
