<svg width="124" height="124" viewBox="0 0 124 124" fill="none" xmlns="http://www.w3.org/2000/svg">
<rect width="124" height="124" rx="16" fill="#2D8CFF"/>
<g clip-path="url(#clip0_50_12147)">
<path fill-rule="evenodd" clip-rule="evenodd" d="M89.6483 58.0465C89.9847 58.6262 90.0948 59.2859 90.1311 60.0274L90.1789 61.0158V67.9272L90.2276 68.9166C90.3252 70.5324 91.5181 71.7272 93.1481 71.8288L94.1334 71.8776V61.0158L94.1822 60.0274C94.2226 59.2942 94.3317 58.6221 94.6732 58.0382C95.0213 57.4393 95.5209 56.9424 96.122 56.5974C96.7231 56.2524 97.4045 56.0715 98.0977 56.0727C98.7909 56.074 99.4716 56.2574 100.071 56.6046C100.671 56.9518 101.169 57.4505 101.515 58.0506C101.851 58.6304 101.956 59.3024 101.997 60.0274L102.045 61.0127V67.9272L102.094 68.9166C102.196 70.5407 103.38 71.7355 105.015 71.8288L106 71.8776V60.0274C106 57.932 105.167 55.9223 103.684 54.4403C102.201 52.9583 100.19 52.1254 98.092 52.1245C96.9693 52.1233 95.8593 52.3615 94.8361 52.8231C93.8129 53.2847 92.9001 53.9592 92.1587 54.8013C91.4169 53.9595 90.5041 53.2852 89.481 52.8235C88.4579 52.3617 87.3481 52.1231 86.2254 52.1235C84.5829 52.1235 83.0589 52.6213 81.7964 53.4811C81.0261 52.6223 79.3027 52.1235 78.3133 52.1235V71.8776L79.3027 71.8288C80.9576 71.7199 82.1536 70.5573 82.2179 68.9166L82.2709 67.9272V61.0158L82.3197 60.0274C82.3612 59.2817 82.465 58.6262 82.8024 58.0423C83.1508 57.4438 83.6502 56.947 84.2508 56.6016C84.8515 56.2562 85.5323 56.0742 86.2254 56.0739C86.919 56.074 87.6003 56.2564 88.2011 56.6026C88.8019 56.9488 89.301 57.4468 89.6483 58.0465ZM21.9545 71.8298L22.9439 71.8776H37.7746L37.7258 70.8923C37.5919 69.2682 36.4405 68.0817 34.8095 67.9759L33.8201 67.9272H24.9227L36.7852 56.0729L36.7364 55.0886C36.6596 53.4479 35.4594 52.2625 33.8201 52.1722L32.8307 52.1276L18 52.1235L18.0488 53.1119C18.1786 54.7204 19.3465 55.9318 20.9641 56.0251L21.9545 56.0739H30.8519L18.9894 67.9282L19.0382 68.9166C19.1358 70.5449 20.3121 71.7241 21.9545 71.8288V71.8298ZM74.4314 55.015C75.3497 55.9321 76.0782 57.021 76.5752 58.2194C77.0721 59.4178 77.3279 60.7023 77.3279 61.9995C77.3279 63.2967 77.0721 64.5811 76.5752 65.7796C76.0782 66.978 75.3497 68.0668 74.4314 68.984C72.5762 70.8358 70.0608 71.876 67.4381 71.876C64.8154 71.876 62.3 70.8358 60.4448 68.984C56.5837 65.1269 56.5837 58.872 60.4448 55.015C61.3622 54.0981 62.4515 53.3708 63.6503 52.8745C64.8492 52.3782 66.1341 52.1227 67.4319 52.1225C68.7317 52.1216 70.0189 52.3767 71.22 52.8732C72.421 53.3697 73.5123 54.0978 74.4314 55.016V55.015ZM71.6335 57.8121C72.7456 58.9239 73.3703 60.4314 73.3703 62.0031C73.3703 63.5749 72.7456 65.0823 71.6335 66.1941C70.5205 67.3051 69.0115 67.9292 67.4381 67.9292C65.8647 67.9292 64.3557 67.3051 63.2427 66.1941C62.1306 65.0823 61.5059 63.5749 61.5059 62.0031C61.5059 60.4314 62.1306 58.9239 63.2427 57.8121C64.3557 56.7011 65.8647 56.0771 67.4381 56.0771C69.0115 56.0771 70.5205 56.7011 71.6335 57.8121ZM46.6803 52.1225C47.9781 52.1228 49.2631 52.3785 50.462 52.875C51.6608 53.3715 52.75 54.099 53.6674 55.016C57.5295 58.872 57.5295 65.128 53.6674 68.984C51.8121 70.8358 49.2968 71.876 46.6741 71.876C44.0514 71.876 41.536 70.8358 39.6808 68.984C35.8197 65.1269 35.8197 58.872 39.6808 55.015C40.5982 54.0981 41.6875 53.3708 42.8863 52.8745C44.0852 52.3782 45.3701 52.1227 46.6678 52.1225H46.6803ZM50.8694 57.81C51.9819 58.9219 52.6068 60.4296 52.6068 62.0016C52.6068 63.5736 51.9819 65.0812 50.8694 66.1931C49.7565 67.3041 48.2475 67.9281 46.6741 67.9281C45.1007 67.9281 43.5917 67.3041 42.4787 66.1931C41.3666 65.0813 40.7419 63.5738 40.7419 62.0021C40.7419 60.4303 41.3666 58.9229 42.4787 57.8111C43.5917 56.7001 45.1007 56.076 46.6741 56.076C48.2475 56.076 49.7565 56.7001 50.8694 57.8111V57.81Z" fill="white"/>
</g>
<defs>
<clipPath id="clip0_50_12147">
<rect width="88" height="19.7551" fill="white" transform="translate(18 52.1225)"/>
</clipPath>
</defs>
</svg>
